<svg width="137" height="69" viewBox="0 0 137 69" fill="none" xmlns="http://www.w3.org/2000/svg">
<rect width="137" height="69" fill="white"/>
<g clip-path="url(#clip0_295_40)">
<path d="M16.404 37.427H11.3296V14.1507H4V8.33167H23.7336V14.1507H16.404V37.427Z" fill="#00297B"/>
<path d="M41.8326 8.33167V13.9869H31.6839C31.196 13.9869 30.8517 14.1308 30.6538 14.4225C30.456 14.7143 30.3584 15.2178 30.3584 15.9412V19.9738H41.5778V25.3772H30.3584V29.8255C30.3584 30.5449 30.456 31.0524 30.6538 31.3442C30.8517 31.6359 31.1933 31.7798 31.6839 31.7798H41.9464V37.431H28.2739C26.2816 37.431 25.2867 35.9483 25.2867 32.9828V12.8199C25.2867 9.8264 26.2816 8.33167 28.2739 8.33167H41.8326Z" fill="#00297B"/>
<path d="M61.0295 37.427H47.4708C45.4784 37.427 44.4836 35.9443 44.4836 32.9788V8.33167H49.558V29.6536C49.558 30.373 49.6556 30.8806 49.8534 31.1723C50.0513 31.4641 50.3929 31.608 50.8835 31.608H61.0322V37.427H61.0295Z" fill="#00297B"/>
<path d="M79.1285 37.427H65.5698C63.5775 37.427 62.5826 35.9443 62.5826 32.9788V8.33167H67.657V29.6536C67.657 30.373 67.7546 30.8806 67.9524 31.1723C68.1503 31.4641 68.4919 31.608 68.9825 31.608H79.1312V37.427H79.1285Z" fill="#00297B"/>
<path d="M107.601 17.3521L103.541 34.0619C103.221 35.3648 102.844 36.308 102.413 36.8876C101.979 37.4711 101.258 37.7588 100.242 37.7588C99.2253 37.7588 98.4744 37.4671 98.0434 36.8876C97.6097 36.304 97.2356 35.3648 96.9158 34.0619L92.8851 17.3521C92.717 16.6886 92.576 16.3529 92.4622 16.3529C92.2752 16.3529 92.1803 16.6567 92.1803 17.2682L92.3212 37.4271H87.2469V12.4882C87.2469 11.573 87.377 10.7976 87.6426 10.1622C87.9056 9.52671 88.258 9.0591 88.6998 8.77135C89.1416 8.47959 89.5645 8.27976 89.9684 8.16786C90.3723 8.05595 90.8006 8 91.2505 8C93.4109 8 94.8394 9.42679 95.5361 12.2804L99.6807 29.0742C99.8677 29.8775 100.057 30.2811 100.244 30.2811C100.432 30.2811 100.621 29.8815 100.808 29.0742L104.953 12.2804C105.647 9.42679 107.067 8 109.209 8C111.895 8 113.239 9.49474 113.239 12.4882V37.4271H108.165L108.333 17.2682C108.333 16.6607 108.23 16.3529 108.024 16.3529C107.91 16.3529 107.769 16.6847 107.601 17.3521Z" fill="#00297B"/>
<path d="M132.889 8.33167V13.9869H122.74C122.252 13.9869 121.908 14.1308 121.71 14.4225C121.512 14.7143 121.415 15.2178 121.415 15.9412V19.9738H132.634V25.3772H121.415V29.8255C121.415 30.5449 121.512 31.0524 121.71 31.3442C121.908 31.6359 122.25 31.7798 122.74 31.7798H133.003V37.431H119.33C117.338 37.431 116.343 35.9483 116.343 32.9828V12.8199C116.343 9.8264 117.338 8.33167 119.33 8.33167H132.889Z" fill="#00297B"/>
<path d="M8.33975 58.1455H7.65938V51.4112H5.58844V50.5919H10.4107V51.4112H8.33975V58.1455Z" fill="#00297B"/>
<path d="M10.2887 52.4263H12.3298C12.6605 52.4263 12.9126 52.5662 13.0834 52.846C13.2542 53.1258 13.3382 53.5094 13.3382 53.989V57.2782C13.3382 57.582 13.2921 57.8018 13.2 57.9377C13.1078 58.0736 12.9506 58.1415 12.731 58.1415H11.0043C10.6519 58.1415 10.3971 58.0016 10.2372 57.7139C10.0773 57.4301 9.99597 56.9905 9.99597 56.391C9.99597 55.232 10.3321 54.6525 11.007 54.6525H12.7256V53.973C12.7256 53.4255 12.544 53.1537 12.1753 53.1537H10.286V52.4184L10.2887 52.4263ZM12.7039 52.1586L11.8989 51.1554C11.8446 51.0915 11.7877 51.0595 11.7308 51.0595C11.6766 51.0595 11.6169 51.0915 11.5546 51.1554L10.7495 52.1586L10.4703 51.639L11.392 50.496C11.5004 50.3721 11.6088 50.3121 11.7199 50.3121C11.8473 50.3121 11.9585 50.3721 12.0561 50.496L12.9777 51.639L12.6985 52.1586H12.7039ZM12.7256 55.3958H11.1236C10.942 55.3958 10.8173 55.4798 10.7468 55.6476C10.6763 55.8155 10.6411 56.0673 10.6411 56.399C10.6411 56.7307 10.6763 56.9825 10.7468 57.1543C10.8173 57.3262 10.942 57.4141 11.1236 57.4141H12.5223C12.6578 57.4141 12.7283 57.3182 12.7283 57.1224V55.3958H12.7256Z" fill="#00297B"/>
<path d="M14.0701 58.1456V53.3656C14.0701 52.7381 14.2679 52.4264 14.6637 52.4264H18.1333C19.0062 52.4264 19.4426 53.0459 19.4426 54.2808V58.1456H18.8273V54.4447C18.8273 53.5894 18.5698 53.1618 18.052 53.1618H17.0626V58.1456H16.4473V53.1618H14.9104C14.8318 53.1618 14.7748 53.1897 14.7396 53.2417C14.7044 53.2937 14.6854 53.3896 14.6854 53.5295V58.1495H14.0701V58.1456Z" fill="#00297B"/>
<path d="M21.8795 58.1455V50.5919H22.4948V58.1455H21.8795Z" fill="#00297B"/>
<path d="M26.8345 52.4264L24.5224 59.9919H23.8772L24.4709 58.1455L22.7875 52.4264H23.4327L24.788 57.1544L26.1921 52.4264H26.8373H26.8345ZM25.3789 50.2362L25.7069 50.8517L24.6687 52.1026L24.3407 51.4991L25.3789 50.2362Z" fill="#00297B"/>
<path d="M29.06 52.4264L30.231 57.0545C30.2689 57.2143 30.3042 57.2903 30.334 57.2903C30.3692 57.2903 30.4045 57.2103 30.4451 57.0545L31.608 52.4264H32.245L30.8327 57.7139C30.7948 57.8578 30.746 57.9697 30.6864 58.0496C30.6267 58.1296 30.5725 58.1735 30.521 58.1895C30.4695 58.2055 30.4072 58.2095 30.334 58.2095C30.2608 58.2095 30.1985 58.2015 30.1469 58.1895C30.0954 58.1735 30.0412 58.1296 29.9816 58.0496C29.922 57.9697 29.8732 57.8578 29.8352 57.7139L28.423 52.4264H29.06Z" fill="#00297B"/>
<path d="M35.9017 52.4344V57.2064C35.9017 57.8298 35.7038 58.1416 35.3081 58.1416H33.8741C33.0013 58.1416 32.5649 57.5261 32.5649 56.2871V52.4304H33.1802V56.1233C33.1802 56.9786 33.4377 57.4062 33.9554 57.4062H35.0614C35.14 57.4062 35.1969 57.3782 35.2322 57.3263C35.2674 57.2743 35.2864 57.1784 35.2864 57.0425V52.4344H35.9017ZM33.2236 51.8749L32.9173 51.5631C33.126 51.0036 33.3916 50.7198 33.7088 50.7198C33.8687 50.7198 34.0124 50.7758 34.1398 50.8917L34.4108 51.1275C34.5518 51.2554 34.6738 51.3233 34.7768 51.3233C34.85 51.3233 34.9177 51.2874 34.9828 51.2194C35.0451 51.1515 35.0939 51.0875 35.121 51.0236C35.1508 50.9636 35.1888 50.8637 35.2376 50.7278L35.552 51.0076C35.3433 51.6111 35.0749 51.9148 34.7551 51.9148C34.5843 51.9148 34.4352 51.8589 34.3078 51.743L34.0747 51.5392C33.9175 51.4033 33.7928 51.3353 33.6952 51.3353C33.5245 51.3353 33.3672 51.5152 33.2263 51.8749H33.2236ZM35.2945 52.4464C35.5276 52.4464 35.7038 52.3425 35.8204 52.1347C35.9369 51.9268 35.9966 51.5751 35.9966 51.0755H36.4574C36.4574 51.775 36.3571 52.2985 36.1538 52.6462C35.9505 52.9939 35.6659 53.1698 35.2945 53.1698V52.4464Z" fill="#00297B"/>
<path d="M36.6363 58.1456V53.3656C36.6363 52.7381 36.8342 52.4264 37.2299 52.4264H38.6205C39.4933 52.4264 39.9297 53.0459 39.9297 54.2808V58.1456H39.3144V54.4447C39.3144 53.5894 39.0569 53.1618 38.5392 53.1618H37.4766C37.398 53.1618 37.3411 53.1897 37.3058 53.2417C37.2706 53.2937 37.2516 53.3896 37.2516 53.5295V58.1495H36.6363V58.1456Z" fill="#00297B"/>
<path d="M43.4047 58.1456H42.147C41.5371 58.1456 41.1169 57.9138 40.8838 57.4502C40.6507 56.9866 40.5369 56.2632 40.5369 55.288C40.5369 54.3128 40.6534 53.6134 40.8893 53.1418C41.1224 52.6662 41.5425 52.4304 42.147 52.4304H43.0469C43.3885 52.4304 43.6379 52.4944 43.7924 52.6263C43.9496 52.7541 44.0255 53.0219 44.0255 53.4256V57.602C44.0255 58.4214 43.9035 59.0288 43.6623 59.4205C43.421 59.8122 43.0063 60.008 42.4208 60.008H40.8025V59.2726H42.4208C42.6945 59.2726 42.9195 59.1807 43.093 58.9969C43.2692 58.813 43.3722 58.5293 43.3993 58.1496L43.4047 58.1456ZM43.4129 57.4102V53.5455C43.4129 53.2857 43.3207 53.1578 43.1337 53.1578H42.2636C41.8298 53.1578 41.5398 53.3257 41.3961 53.6654C41.2525 54.0051 41.1793 54.5446 41.1793 55.284C41.1793 56.0234 41.2498 56.5909 41.3907 56.9186C41.5317 57.2463 41.8217 57.4102 42.2608 57.4102H43.4102H43.4129Z" fill="#00297B"/>
<path d="M46.6901 52.4264L47.8611 57.0545C47.8991 57.2143 47.9343 57.2903 47.9641 57.2903C47.9994 57.2903 48.0346 57.2103 48.0752 57.0545L49.2381 52.4264H49.8751L48.4629 57.7139C48.4249 57.8578 48.3761 57.9697 48.3165 58.0496C48.2569 58.1296 48.2027 58.1735 48.1511 58.1895C48.0996 58.2055 48.0373 58.2095 47.9641 58.2095C47.8909 58.2095 47.8286 58.2015 47.7771 58.1895C47.7256 58.1775 47.6714 58.1296 47.6117 58.0496C47.5521 57.9697 47.5033 57.8578 47.4654 57.7139L46.0531 52.4264H46.6901Z" fill="#00297B"/>
<path d="M50.2925 52.4264H52.3336C52.6643 52.4264 52.9164 52.5662 53.0872 52.846C53.258 53.1258 53.342 53.5094 53.342 53.989V57.2782C53.342 57.582 53.2959 57.8018 53.2038 57.9377C53.1116 58.0736 52.9544 58.1415 52.7348 58.1415H51.0081C50.6557 58.1415 50.4009 58.0016 50.241 57.7139C50.0811 57.4301 49.9998 56.9905 49.9998 56.391C49.9998 55.232 50.3359 54.6525 51.0108 54.6525H52.7294V53.973C52.7294 53.4255 52.5478 53.1537 52.1791 53.1537H50.2898V52.4184L50.2925 52.4264ZM52.7294 55.3958H51.1274C50.9458 55.3958 50.8211 55.4798 50.7506 55.6476C50.6801 55.8155 50.6449 56.0673 50.6449 56.399C50.6449 56.7307 50.6801 56.9825 50.7506 57.1544C50.8211 57.3262 50.9458 57.4141 51.1274 57.4141H52.5261C52.6616 57.4141 52.7321 57.3182 52.7321 57.1224V55.3958H52.7294ZM51.0813 50.2362L52.1195 51.4991L51.7915 52.1026L50.7533 50.8517L51.0813 50.2362Z" fill="#00297B"/>
<path d="M54.0739 58.1456V53.3656C54.0739 52.7381 54.2718 52.4264 54.6675 52.4264H56.0581C56.9309 52.4264 57.3674 53.0459 57.3674 54.2808V58.1456H56.752V54.4447C56.752 53.5894 56.4945 53.1618 55.9768 53.1618H54.9142C54.8356 53.1618 54.7787 53.1897 54.7434 53.2417C54.7082 53.2937 54.6892 53.3896 54.6892 53.5295V58.1495H54.0739V58.1456Z" fill="#00297B"/>
<path d="M60.8451 58.1456H59.5874C58.9775 58.1456 58.5573 57.9138 58.3242 57.4502C58.0911 56.9866 57.9772 56.2632 57.9772 55.288C57.9772 54.3128 58.0938 53.6134 58.3296 53.1418C58.5627 52.6662 58.9829 52.4304 59.5874 52.4304H60.4873C60.8288 52.4304 61.0782 52.4944 61.2327 52.6263C61.3899 52.7541 61.4658 53.0219 61.4658 53.4256V57.602C61.4658 58.4214 61.3439 59.0288 61.1026 59.4205C60.8614 59.8122 60.4466 60.008 59.8611 60.008H58.2429V59.2726H59.8611C60.1349 59.2726 60.3599 59.1807 60.5334 58.9969C60.7096 58.813 60.8126 58.5293 60.8397 58.1496L60.8451 58.1456ZM60.8532 57.4102V53.5455C60.8532 53.2857 60.7611 53.1578 60.574 53.1578H59.7039C59.2702 53.1578 58.9802 53.3257 58.8365 53.6654C58.6928 54.0051 58.6197 54.5446 58.6197 55.284C58.6197 56.0234 58.6901 56.5909 58.8311 56.9186C58.972 57.2463 59.2621 57.4102 59.7012 57.4102H60.8505H60.8532Z" fill="#00297B"/>
<path d="M63.8675 55.6197V54.8004H66.2691V55.6197H63.8675Z" fill="#00297B"/>
<path d="M68.668 58.1455V57.3262H71.5305C71.891 57.3262 72.0726 56.9745 72.0726 56.2671C72.0726 56.0233 72.0374 55.8155 71.9615 55.6476C71.8883 55.4798 71.7338 55.3359 71.5007 55.22L69.4731 54.2288C69.1614 54.077 68.9364 53.8572 68.8009 53.5694C68.6653 53.2816 68.5948 52.878 68.5948 52.3624C68.5948 51.8029 68.6897 51.3673 68.8795 51.0555C69.0692 50.7478 69.362 50.5919 69.7577 50.5919H72.5307V51.4112H69.8824C69.6818 51.4112 69.5354 51.4872 69.4433 51.639C69.3511 51.7909 69.305 52.0387 69.305 52.3824C69.305 52.5463 69.3132 52.6861 69.3267 52.7941C69.3403 52.902 69.3864 53.0139 69.4623 53.1338C69.5382 53.2537 69.6466 53.3496 69.7875 53.4215L71.7202 54.3727C72.097 54.5606 72.3654 54.7844 72.5334 55.0481C72.6988 55.3119 72.7828 55.7196 72.7828 56.2711C72.7828 56.8226 72.6988 57.2863 72.5307 57.63C72.3627 57.9737 72.0916 58.1495 71.7229 58.1495H68.6707L68.668 58.1455Z" fill="#00297B"/>
<path d="M73.6096 52.4264H75.6507C75.9814 52.4264 76.2335 52.5663 76.4042 52.846C76.575 53.1258 76.6618 53.5095 76.6618 53.9891V57.2783C76.6618 57.582 76.6157 57.8018 76.5235 57.9377C76.4313 58.0736 76.2741 58.1415 76.0546 58.1415H74.3279C73.9755 58.1415 73.7207 58.0017 73.5608 57.7139C73.4008 57.4301 73.3195 56.9905 73.3195 56.391C73.3195 55.232 73.6556 54.6525 74.3306 54.6525H76.0491V53.9731C76.0491 53.4255 75.8675 53.1538 75.5016 53.1538H73.6123V52.4184L73.6096 52.4264ZM74.0406 50.0404L73.7343 49.7287C73.943 49.1691 74.2086 48.8854 74.5258 48.8854C74.6857 48.8854 74.8294 48.9413 74.9568 49.0572L75.2278 49.293C75.3688 49.4209 75.4908 49.4889 75.5938 49.4889C75.6669 49.4889 75.7347 49.4529 75.7998 49.385C75.8621 49.317 75.9109 49.2531 75.938 49.1891C75.9678 49.1292 76.0058 49.0293 76.0546 48.8934L76.369 49.1731C76.1603 49.7766 75.8946 50.0804 75.5721 50.0804C75.4013 50.0804 75.2522 50.0244 75.1248 49.9085L74.8917 49.7047C74.7345 49.5688 74.6098 49.5009 74.5122 49.5009C74.3414 49.5009 74.1842 49.6807 74.0433 50.0404H74.0406ZM75.0435 51.4992C75.3986 51.4992 75.6209 51.2714 75.7103 50.8197H76.2524C76.1169 51.703 75.713 52.1466 75.0462 52.1466C74.3794 52.1466 73.9836 51.703 73.8454 50.8197H74.3875C74.4661 51.2714 74.6857 51.4992 75.0462 51.4992H75.0435ZM76.0464 55.3959H74.4444C74.2628 55.3959 74.1381 55.4798 74.0677 55.6477C73.9972 55.8155 73.9619 56.0673 73.9619 56.399C73.9619 56.7307 73.9972 56.9825 74.0677 57.1544C74.1381 57.3262 74.2628 57.4142 74.4444 57.4142H75.8431C75.9787 57.4142 76.0491 57.3182 76.0491 57.1224V55.3959H76.0464Z" fill="#00297B"/>
<path d="M77.3937 58.1456V53.3656C77.3937 52.7381 77.5916 52.4264 77.9873 52.4264H79.3779C80.2507 52.4264 80.6871 53.0459 80.6871 54.2808V58.1456H80.0718V54.4447C80.0718 53.5894 79.8143 53.1618 79.2966 53.1618H78.234C78.1554 53.1618 78.0984 53.1897 78.0632 53.2417C78.028 53.2937 78.009 53.3896 78.009 53.5295V58.1495H77.3937V58.1456Z" fill="#00297B"/>
<path d="M83.0345 58.1456V57.4102H85.2383C85.55 57.4102 85.7072 57.1704 85.7072 56.6868C85.7072 56.5869 85.6991 56.4989 85.6855 56.423C85.672 56.3471 85.6367 56.2831 85.5879 56.2232C85.5364 56.1672 85.4958 56.1193 85.4632 56.0833C85.4307 56.0473 85.3657 56.0074 85.2654 55.9594C85.1651 55.9114 85.0919 55.8795 85.0431 55.8635C84.9943 55.8475 84.8994 55.8115 84.7585 55.7596L84.0483 55.4998C83.6688 55.3639 83.395 55.1721 83.2297 54.9243C83.0643 54.6765 82.9803 54.3168 82.9803 53.8492C82.9803 52.898 83.33 52.4264 84.0266 52.4264H86.1274V53.1618H84.0917C83.91 53.1618 83.7826 53.2137 83.7067 53.3176C83.6308 53.4215 83.5929 53.6014 83.5929 53.8532C83.5929 54.1409 83.6498 54.3488 83.7637 54.4727C83.8775 54.5966 84.0618 54.7085 84.3166 54.8004L85.0838 55.0921C85.3223 55.1801 85.5012 55.252 85.6205 55.3119C85.7397 55.3719 85.8644 55.4638 85.9972 55.5797C86.1301 55.6996 86.2195 55.8475 86.271 56.0273C86.3225 56.2072 86.3469 56.431 86.3469 56.6948C86.3469 57.1704 86.2737 57.5301 86.1301 57.7739C85.9864 58.0177 85.7397 58.1416 85.3873 58.1416H83.0318L83.0345 58.1456Z" fill="#00297B"/>
<path d="M87.1032 52.4264H89.1443C89.475 52.4264 89.7271 52.5662 89.8979 52.846C90.0687 53.1258 90.1554 53.5094 90.1554 53.989V57.2782C90.1554 57.582 90.1093 57.8018 90.0172 57.9377C89.925 58.0736 89.7678 58.1415 89.5482 58.1415H87.8215C87.4691 58.1415 87.2143 58.0016 87.0544 57.7139C86.8945 57.4301 86.8132 56.9905 86.8132 56.391C86.8132 55.232 87.1493 54.6525 87.8242 54.6525H89.5428V53.973C89.5428 53.4255 89.3612 53.1537 88.9952 53.1537H87.1059V52.4184L87.1032 52.4264ZM89.5401 55.3958H87.9381C87.7565 55.3958 87.6318 55.4798 87.5613 55.6476C87.4908 55.8155 87.4556 56.0673 87.4556 56.399C87.4556 56.7307 87.4908 56.9825 87.5613 57.1544C87.6318 57.3262 87.7565 57.4141 87.9381 57.4141H89.3368C89.4723 57.4141 89.5428 57.3182 89.5428 57.1224V55.3958H89.5401ZM87.8947 50.2362L88.9329 51.4991L88.6022 52.1026L87.564 50.8517L87.8947 50.2362Z" fill="#00297B"/>
<path d="M90.8873 58.1456V53.3656C90.8873 52.7381 91.0851 52.4264 91.4809 52.4264H92.8715C93.7443 52.4264 94.1807 53.0459 94.1807 54.2808V58.1456H93.5654V54.4447C93.5654 53.5894 93.3079 53.1618 92.7901 53.1618H91.7276C91.649 53.1618 91.592 53.1897 91.5568 53.2417C91.5216 53.2937 91.5026 53.3896 91.5026 53.5295V58.1495H90.8873V58.1456Z" fill="#00297B"/>
<path d="M97.6585 58.1456H96.4008C95.7909 58.1456 95.3707 57.9138 95.1376 57.4502C94.9045 56.9866 94.7906 56.2632 94.7906 55.288C94.7906 54.3128 94.9072 53.6134 95.143 53.1418C95.3761 52.6662 95.7963 52.4304 96.4008 52.4304H97.3007C97.6423 52.4304 97.8916 52.4944 98.0461 52.6263C98.2034 52.7541 98.2793 53.0219 98.2793 53.4256V57.602C98.2793 58.4214 98.1573 59.0288 97.916 59.4205C97.6748 59.8122 97.2601 60.008 96.6746 60.008H95.0563V59.2726H96.6746C96.9483 59.2726 97.1733 59.1807 97.3468 58.9969C97.523 58.813 97.626 58.5293 97.6531 58.1496L97.6585 58.1456ZM97.6666 57.4102V53.5455C97.6666 53.2857 97.5745 53.1578 97.3875 53.1578H96.5173C96.0836 53.1578 95.7936 53.3257 95.6499 53.6654C95.5063 54.0051 95.4331 54.5446 95.4331 55.284C95.4331 56.0234 95.5035 56.5909 95.6445 56.9186C95.7855 57.2463 96.0755 57.4102 96.5146 57.4102H97.6639H97.6666Z" fill="#00297B"/>
<path d="M103.79 58.1456H102.24C101.616 58.1456 101.185 57.9098 100.947 57.4342C100.708 56.9586 100.591 56.2392 100.591 55.276C100.591 54.3128 100.711 53.6214 100.949 53.1458C101.188 52.6662 101.619 52.4264 102.237 52.4264H103.709V53.1618H102.348C101.898 53.1618 101.6 53.3336 101.451 53.6733C101.302 54.013 101.228 54.5486 101.228 55.276C101.228 56.0034 101.302 56.5669 101.448 56.9066C101.594 57.2463 101.895 57.4142 102.348 57.4142H103.79V58.1495V58.1456Z" fill="#00297B"/>
<path d="M104.272 58.1455V50.5919H104.888V52.4264H106.219C106.663 52.4264 106.999 52.5782 107.224 52.886C107.452 53.1937 107.563 53.6853 107.563 54.3687V58.1455H106.948V54.4886C106.948 54.041 106.886 53.7093 106.758 53.4895C106.631 53.2697 106.425 53.1617 106.137 53.1617H104.885V58.1455H104.27H104.272Z" fill="#00297B"/>
<path d="M108.469 52.4263H110.51C110.84 52.4263 111.092 52.5662 111.263 52.846C111.434 53.1258 111.521 53.5094 111.521 53.989V57.2782C111.521 57.582 111.475 57.8018 111.383 57.9377C111.29 58.0736 111.133 58.1415 110.914 58.1415H109.187C108.835 58.1415 108.58 58.0016 108.42 57.7139C108.26 57.4301 108.179 56.9905 108.179 56.391C108.179 55.232 108.515 54.6525 109.19 54.6525H110.908V53.973C110.908 53.4255 110.727 53.1537 110.361 53.1537H108.471V52.4183L108.469 52.4263ZM109.903 51.4991C110.258 51.4991 110.48 51.2713 110.569 50.8197H111.111C110.976 51.703 110.572 52.1466 109.905 52.1466C109.238 52.1466 108.843 51.703 108.704 50.8197H109.247C109.325 51.2713 109.545 51.4991 109.905 51.4991H109.903ZM110.905 55.3958H109.303C109.122 55.3958 108.997 55.4798 108.927 55.6476C108.856 55.8155 108.821 56.0673 108.821 56.399C108.821 56.7307 108.856 56.9825 108.927 57.1543C108.997 57.3262 109.122 57.4141 109.303 57.4141H110.702C110.838 57.4141 110.908 57.3182 110.908 57.1224V55.3958H110.905Z" fill="#00297B"/>
<path d="M112.25 58.1456V53.3656C112.25 52.7381 112.448 52.4264 112.844 52.4264H116.313C117.186 52.4264 117.622 53.0459 117.622 54.2808V58.1456H117.007V54.4447C117.007 53.5894 116.75 53.1618 116.232 53.1618H115.245V58.1456H114.63V53.1618H113.093C113.014 53.1618 112.957 53.1897 112.922 53.2417C112.887 53.2937 112.868 53.3896 112.868 53.5295V58.1495H112.253L112.25 58.1456Z" fill="#00297B"/>
<path d="M119.973 58.1456V57.4102H122.176C122.488 57.4102 122.645 57.1704 122.645 56.6868C122.645 56.5869 122.637 56.4989 122.624 56.423C122.61 56.3471 122.578 56.2831 122.526 56.2232C122.475 56.1672 122.434 56.1193 122.401 56.0833C122.369 56.0473 122.304 56.0074 122.203 55.9594C122.103 55.9114 122.03 55.8795 121.981 55.8635C121.932 55.8475 121.838 55.8115 121.697 55.7596L120.986 55.4998C120.607 55.3639 120.333 55.1721 120.168 54.9243C120.002 54.6765 119.918 54.3168 119.918 53.8492C119.918 52.898 120.268 52.4264 120.965 52.4264H123.065V53.1618H121.03C120.848 53.1618 120.721 53.2137 120.645 53.3176C120.569 53.4215 120.531 53.6014 120.531 53.8532C120.531 54.1409 120.588 54.3488 120.702 54.4727C120.816 54.5966 121 54.7085 121.255 54.8004L122.022 55.0921C122.26 55.1801 122.439 55.252 122.559 55.3119C122.678 55.3719 122.805 55.4638 122.935 55.5797C123.068 55.6996 123.158 55.8475 123.209 56.0273C123.261 56.2072 123.285 56.431 123.285 56.6948C123.285 57.1704 123.212 57.5301 123.068 57.7739C122.925 58.0177 122.678 58.1416 122.325 58.1416H119.97L119.973 58.1456Z" fill="#00297B"/>
<path d="M127.73 55.264C127.73 56.335 127.576 57.0944 127.267 57.542C126.958 57.9896 126.448 58.2095 125.741 58.2095C125.033 58.2095 124.524 57.9856 124.215 57.542C123.906 57.0944 123.751 56.339 123.751 55.264C123.751 54.1889 123.906 53.4495 124.215 53.0139C124.524 52.5782 125.033 52.3624 125.741 52.3624C126.448 52.3624 126.958 52.5782 127.267 53.0139C127.576 53.4495 127.73 54.2009 127.73 55.264ZM124.394 55.264C124.394 56.0753 124.494 56.6508 124.697 56.9785C124.901 57.3102 125.248 57.4741 125.741 57.4741C126.234 57.4741 126.581 57.3102 126.784 56.9785C126.988 56.6468 127.088 56.0753 127.088 55.264C127.088 54.4526 126.988 53.8971 126.787 53.5734C126.587 53.2537 126.237 53.0938 125.741 53.0938C125.245 53.0938 124.895 53.2537 124.695 53.5734C124.494 53.8931 124.394 54.4566 124.394 55.264ZM126.237 50.2362L126.568 50.8517L125.529 52.1026L125.199 51.4991L126.237 50.2362Z" fill="#00297B"/>
<path d="M131.412 58.1456H129.861C129.238 58.1456 128.807 57.9098 128.568 57.4342C128.33 56.9586 128.213 56.2392 128.213 55.276C128.213 54.3128 128.332 53.6214 128.571 53.1458C128.809 52.6662 129.24 52.4264 129.858 52.4264H131.33V53.1618H129.97C129.52 53.1618 129.221 53.3336 129.072 53.6733C128.923 54.013 128.85 54.5486 128.85 55.276C128.85 56.0034 128.923 56.5669 129.07 56.9066C129.216 57.2463 129.517 57.4142 129.97 57.4142H131.412V58.1495V58.1456Z" fill="#00297B"/>
</g>
<defs>
<clipPath id="clip0_295_40">
<rect width="129" height="52" fill="white" transform="translate(4 8)"/>
</clipPath>
</defs>
</svg>
