<svg width="151" height="42" viewBox="0 0 151 42" fill="none" xmlns="http://www.w3.org/2000/svg">
<g clip-path="url(#clip0_78_357)">
<path d="M14.5194 23.768H8.57962V4.96795H0V0.267929H23.099V4.96795H14.5194V23.768Z" fill="#00297B"/>
<path d="M44.2847 0.267929V4.8356H32.4052C31.8341 4.8356 31.4312 4.95181 31.1995 5.18746C30.9679 5.42311 30.8537 5.82984 30.8537 6.41411V9.6712H43.9865V14.0355H30.8537V17.6283C30.8537 18.2094 30.9679 18.6193 31.1995 18.855C31.4312 19.0906 31.8309 19.2068 32.4052 19.2068H44.418V23.7713H28.4137C26.0816 23.7713 24.9171 22.5737 24.9171 20.1785V3.89302C24.9171 1.47522 26.0816 0.267929 28.4137 0.267929H44.2847Z" fill="#00297B"/>
<path d="M66.7554 23.768H50.8844C48.5523 23.768 47.3878 22.5704 47.3878 20.1752V0.267929H53.3276V17.4895C53.3276 18.0706 53.4418 18.4805 53.6734 18.7162C53.905 18.9518 54.3048 19.068 54.8791 19.068H66.7586V23.768H66.7554Z" fill="#00297B"/>
<path d="M87.9411 23.768H72.0701C69.738 23.768 68.5735 22.5704 68.5735 20.1752V0.267929H74.5132V17.4895C74.5132 18.0706 74.6274 18.4805 74.8591 18.7162C75.0907 18.9518 75.4905 19.068 76.0648 19.068H87.9443V23.768H87.9411Z" fill="#00297B"/>
<path d="M121.27 7.55361L116.516 21.05C116.142 22.1024 115.701 22.8642 115.197 23.3323C114.689 23.8035 113.845 24.036 112.655 24.036C111.465 24.036 110.586 23.8003 110.082 23.3323C109.574 22.861 109.136 22.1024 108.762 21.05L104.044 7.55361C103.847 7.01775 103.682 6.7466 103.549 6.7466C103.33 6.7466 103.219 6.99193 103.219 7.48582L103.384 23.768H97.444V3.62509C97.444 2.88587 97.5963 2.25963 97.9072 1.74637C98.215 1.23311 98.6275 0.85543 99.1447 0.623011C99.6619 0.387365 100.157 0.225963 100.63 0.135578C101.102 0.0451925 101.604 0 102.13 0C104.659 0 106.331 1.15241 107.147 3.45723L111.998 17.0214C112.217 17.6703 112.439 17.9963 112.658 17.9963C112.877 17.9963 113.099 17.6735 113.318 17.0214L118.17 3.45723C118.982 1.15241 120.644 0 123.151 0C126.295 0 127.869 1.20729 127.869 3.62509V23.768H121.93L122.126 7.48582C122.126 6.99516 122.006 6.7466 121.765 6.7466C121.631 6.7466 121.466 7.01453 121.27 7.55361Z" fill="#00297B"/>
<path d="M150.87 0.267929V4.8356H138.99C138.419 4.8356 138.016 4.95181 137.785 5.18746C137.553 5.42311 137.439 5.82984 137.439 6.41411V9.6712H150.572V14.0355H137.439V17.6283C137.439 18.2094 137.553 18.6193 137.785 18.855C138.016 19.0906 138.416 19.2068 138.99 19.2068H151.003V23.7713H134.999C132.667 23.7713 131.502 22.5737 131.502 20.1785V3.89302C131.502 1.47522 132.667 0.267929 134.999 0.267929H150.87Z" fill="#00297B"/>
<path d="M5.0799 40.5022H4.2835V35.0629H1.85938V34.4012H7.50403V35.0629H5.0799V40.5022Z" fill="#00297B"/>
<path d="M7.36123 35.8829H9.75045C10.1376 35.8829 10.4326 35.9959 10.6325 36.2218C10.8324 36.4478 10.9308 36.7577 10.9308 37.145V39.8017C10.9308 40.047 10.8768 40.2246 10.769 40.3343C10.6611 40.4441 10.4771 40.499 10.22 40.499H8.19889C7.7864 40.499 7.48815 40.386 7.30095 40.1536C7.11374 39.9244 7.01855 39.5693 7.01855 39.0851C7.01855 38.149 7.412 37.6809 8.20206 37.6809H10.2137V37.1321C10.2137 36.6899 10.0011 36.4704 9.56959 36.4704H7.35806V35.8764L7.36123 35.8829ZM10.1883 35.6666L9.24596 34.8564C9.1825 34.8047 9.11587 34.7789 9.04923 34.7789C8.98577 34.7789 8.91597 34.8047 8.84299 34.8564L7.90063 35.6666L7.57382 35.2469L8.65262 34.3237C8.77953 34.2237 8.90645 34.1752 9.03654 34.1752C9.18567 34.1752 9.31576 34.2237 9.42999 34.3237L10.5088 35.2469L10.182 35.6666H10.1883ZM10.2137 38.2813H8.3385C8.12591 38.2813 7.97995 38.3491 7.89746 38.4847C7.81496 38.6202 7.77371 38.8236 7.77371 39.0915C7.77371 39.3595 7.81496 39.5628 7.89746 39.7016C7.97995 39.8404 8.12591 39.9115 8.3385 39.9115H9.97573C10.1344 39.9115 10.2169 39.834 10.2169 39.6758V38.2813H10.2137Z" fill="#00297B"/>
<path d="M11.7875 40.5022V36.6415C11.7875 36.1347 12.0191 35.8829 12.4823 35.8829H16.5437C17.5654 35.8829 18.0762 36.3832 18.0762 37.3807V40.5022H17.356V37.513C17.356 36.8222 17.0545 36.4768 16.4485 36.4768H15.2904V40.5022H14.5701V36.4768H12.7711C12.6791 36.4768 12.6124 36.4994 12.5712 36.5414C12.5299 36.5833 12.5077 36.6608 12.5077 36.7738V40.5054H11.7875V40.5022Z" fill="#00297B"/>
<path d="M20.9287 40.5022V34.4012H21.649V40.5022H20.9287Z" fill="#00297B"/>
<path d="M26.7289 35.8829L24.0224 41.9935H23.2672L23.9621 40.5022L21.9917 35.8829H22.7469L24.3333 39.7016L25.9769 35.8829H26.7321H26.7289ZM25.025 34.1139L25.409 34.611L24.1937 35.6214L23.8098 35.134L25.025 34.1139Z" fill="#00297B"/>
<path d="M29.3338 35.8829L30.7045 39.6209C30.7489 39.7501 30.7902 39.8114 30.8251 39.8114C30.8663 39.8114 30.9076 39.7468 30.9551 39.6209L32.3163 35.8829H33.062L31.4089 40.1536C31.3645 40.2698 31.3073 40.3602 31.2375 40.4247C31.1677 40.4893 31.1043 40.5248 31.044 40.5377C30.9837 40.5506 30.9107 40.5538 30.8251 40.5538C30.7394 40.5538 30.6664 40.5474 30.6061 40.5377C30.5458 40.5248 30.4824 40.4893 30.4126 40.4247C30.3428 40.3602 30.2857 40.2698 30.2412 40.1536L28.5881 35.8829H29.3338Z" fill="#00297B"/>
<path d="M37.3423 35.8893V39.7436C37.3423 40.2472 37.1107 40.499 36.6474 40.499H34.9689C33.9472 40.499 33.4364 40.0018 33.4364 39.0012V35.8861H34.1567V38.8688C34.1567 39.5596 34.4581 39.905 35.0641 39.905H36.3587C36.4507 39.905 36.5173 39.8824 36.5586 39.8404C36.5998 39.7985 36.622 39.721 36.622 39.6112V35.8893H37.3423ZM34.2074 35.4374L33.8489 35.1856C34.0932 34.7337 34.4041 34.5045 34.7754 34.5045C34.9626 34.5045 35.1308 34.5497 35.2799 34.6433L35.5972 34.8338C35.7622 34.9371 35.9049 34.9919 36.0255 34.9919C36.1112 34.9919 36.1905 34.9629 36.2667 34.908C36.3396 34.8531 36.3968 34.8015 36.4285 34.7498C36.4634 34.7014 36.5078 34.6207 36.5649 34.511L36.933 34.7369C36.6887 35.2243 36.3745 35.4697 36.0001 35.4697C35.8002 35.4697 35.6257 35.4245 35.4766 35.3309L35.2037 35.1662C35.0197 35.0565 34.8737 35.0016 34.7595 35.0016C34.5596 35.0016 34.3756 35.1469 34.2106 35.4374H34.2074ZM36.6315 35.899C36.9044 35.899 37.1107 35.8151 37.2471 35.6472C37.3835 35.4794 37.4533 35.1953 37.4533 34.7918H37.9927C37.9927 35.3567 37.8753 35.7796 37.6374 36.0604C37.3994 36.3412 37.0662 36.4833 36.6315 36.4833V35.899Z" fill="#00297B"/>
<path d="M38.2021 40.5022V36.6415C38.2021 36.1347 38.4338 35.8829 38.897 35.8829H40.5247C41.5464 35.8829 42.0573 36.3832 42.0573 37.3807V40.5022H41.337V37.513C41.337 36.8222 41.0356 36.4768 40.4295 36.4768H39.1858C39.0937 36.4768 39.0271 36.4994 38.9859 36.5414C38.9446 36.5833 38.9224 36.6608 38.9224 36.7738V40.5054H38.2021V40.5022Z" fill="#00297B"/>
<path d="M46.125 40.5022H44.6528C43.9389 40.5022 43.4471 40.315 43.1742 39.9405C42.9013 39.5661 42.7681 38.9818 42.7681 38.1941C42.7681 37.4065 42.9045 36.8416 43.1805 36.4607C43.4534 36.0765 43.9452 35.8861 44.6528 35.8861H45.7062C46.106 35.8861 46.3979 35.9377 46.5788 36.0443C46.7628 36.1476 46.8516 36.3638 46.8516 36.6899V40.0632C46.8516 40.7249 46.7089 41.2156 46.4265 41.5319C46.1441 41.8483 45.6586 42.0065 44.9733 42.0065H43.079V41.4125H44.9733C45.2937 41.4125 45.5571 41.3382 45.7601 41.1898C45.9664 41.0413 46.087 40.8121 46.1187 40.5054L46.125 40.5022ZM46.1346 39.9082V36.7867C46.1346 36.5769 46.0267 36.4736 45.8077 36.4736H44.7892C44.2816 36.4736 43.9421 36.6092 43.7739 36.8836C43.6057 37.1579 43.5201 37.5937 43.5201 38.1909C43.5201 38.7881 43.6026 39.2465 43.7675 39.5112C43.9325 39.7759 44.272 39.9082 44.7861 39.9082H46.1314H46.1346Z" fill="#00297B"/>
<path d="M49.9706 35.8829L51.3413 39.6209C51.3857 39.7501 51.427 39.8114 51.4619 39.8114C51.5031 39.8114 51.5444 39.7468 51.592 39.6209L52.9532 35.8829H53.6988L52.0457 40.1536C52.0013 40.2698 51.9442 40.3602 51.8744 40.4247C51.8046 40.4893 51.7411 40.5248 51.6808 40.5377C51.6205 40.5506 51.5476 40.5538 51.4619 40.5538C51.3762 40.5538 51.3032 40.5474 51.243 40.5377C51.1827 40.528 51.1192 40.4893 51.0494 40.4247C50.9796 40.3602 50.9225 40.2698 50.8781 40.1536L49.225 35.8829H49.9706Z" fill="#00297B"/>
<path d="M54.1874 35.8829H56.5766C56.9637 35.8829 57.2588 35.9959 57.4587 36.2218C57.6586 36.4478 57.757 36.7577 57.757 37.145V39.8017C57.757 40.047 57.703 40.2246 57.5951 40.3343C57.4873 40.4441 57.3032 40.499 57.0462 40.499H55.0251C54.6126 40.499 54.3143 40.386 54.1271 40.1536C53.9399 39.9244 53.8447 39.5693 53.8447 39.0851C53.8447 38.149 54.2382 37.6809 55.0282 37.6809H57.0399V37.1321C57.0399 36.6899 56.8273 36.4704 56.3958 36.4704H54.1842V35.8764L54.1874 35.8829ZM57.0399 38.2813H55.1647C54.9521 38.2813 54.8061 38.3491 54.7236 38.4847C54.6411 38.6202 54.5999 38.8236 54.5999 39.0915C54.5999 39.3595 54.6411 39.5628 54.7236 39.7016C54.8061 39.8404 54.9521 39.9115 55.1647 39.9115H56.8019C56.9606 39.9115 57.043 39.834 57.043 39.6758V38.2813H57.0399ZM55.1107 34.1139L56.326 35.134L55.942 35.6214L54.7268 34.611L55.1107 34.1139Z" fill="#00297B"/>
<path d="M58.6136 40.5022V36.6415C58.6136 36.1347 58.8453 35.8829 59.3085 35.8829H60.9362C61.9579 35.8829 62.4688 36.3832 62.4688 37.3807V40.5022H61.7485V37.513C61.7485 36.8222 61.4471 36.4768 60.841 36.4768H59.5973C59.5052 36.4768 59.4386 36.4994 59.3974 36.5414C59.3561 36.5833 59.3339 36.6608 59.3339 36.7738V40.5054H58.6136V40.5022Z" fill="#00297B"/>
<path d="M66.5397 40.5022H65.0675C64.3536 40.5022 63.8617 40.315 63.5889 39.9405C63.316 39.5661 63.1827 38.9818 63.1827 38.1941C63.1827 37.4065 63.3192 36.8416 63.5952 36.4607C63.8681 36.0765 64.3599 35.8861 65.0675 35.8861H66.1209C66.5207 35.8861 66.8126 35.9377 66.9934 36.0443C67.1775 36.1476 67.2663 36.3638 67.2663 36.6899V40.0632C67.2663 40.7249 67.1235 41.2156 66.8411 41.5319C66.5587 41.8483 66.0733 42.0065 65.3879 42.0065H63.4937V41.4125H65.3879C65.7084 41.4125 65.9717 41.3382 66.1748 41.1898C66.3811 41.0413 66.5016 40.8121 66.5334 40.5054L66.5397 40.5022ZM66.5492 39.9082V36.7867C66.5492 36.5769 66.4413 36.4736 66.2224 36.4736H65.2039C64.6962 36.4736 64.3567 36.6092 64.1886 36.8836C64.0204 37.1579 63.9347 37.5937 63.9347 38.1909C63.9347 38.7881 64.0172 39.2465 64.1822 39.5112C64.3472 39.7759 64.6867 39.9082 65.2007 39.9082H66.546H66.5492Z" fill="#00297B"/>
<path d="M70.0775 38.4621V37.8003H72.8887V38.4621H70.0775Z" fill="#00297B"/>
<path d="M75.6968 40.5022V39.8404H79.0474C79.4694 39.8404 79.682 39.5564 79.682 38.985C79.682 38.7881 79.6407 38.6202 79.5519 38.4847C79.4662 38.3491 79.2853 38.2329 79.0125 38.1393L76.6391 37.3387C76.2742 37.216 76.0109 37.0385 75.8522 36.8061C75.6936 36.5737 75.6111 36.2476 75.6111 35.8312C75.6111 35.3793 75.7221 35.0274 75.9442 34.7757C76.1663 34.5271 76.509 34.4012 76.9723 34.4012H80.2182V35.0629H77.1182C76.8834 35.0629 76.7121 35.1243 76.6042 35.2469C76.4963 35.3696 76.4424 35.5698 76.4424 35.8474C76.4424 35.9797 76.4519 36.0927 76.4678 36.1798C76.4836 36.267 76.5376 36.3574 76.6264 36.4542C76.7153 36.5511 76.8422 36.6285 77.0072 36.6867L79.2695 37.4549C79.7105 37.6066 80.0246 37.7874 80.2214 38.0005C80.4149 38.2135 80.5133 38.5428 80.5133 38.9882C80.5133 39.4337 80.4149 39.8082 80.2182 40.0858C80.0215 40.3634 79.7042 40.5054 79.2726 40.5054H75.6999L75.6968 40.5022Z" fill="#00297B"/>
<path d="M81.481 35.8829H83.8702C84.2573 35.8829 84.5524 35.9958 84.7523 36.2218C84.9522 36.4478 85.0537 36.7577 85.0537 37.145V39.8017C85.0537 40.047 84.9998 40.2246 84.8919 40.3343C84.784 40.4441 84.6 40.499 84.343 40.499H82.3218C81.9093 40.499 81.6111 40.386 81.4239 40.1536C81.2367 39.9244 81.1415 39.5693 81.1415 39.0851C81.1415 38.149 81.5349 37.6809 82.325 37.6809H84.3366V37.1321C84.3366 36.6899 84.124 36.4704 83.6957 36.4704H81.4842V35.8764L81.481 35.8829ZM81.9855 33.9557L81.6269 33.7039C81.8713 33.252 82.1822 33.0228 82.5534 33.0228C82.7406 33.0228 82.9088 33.068 83.0579 33.1616L83.3752 33.3521C83.5402 33.4554 83.683 33.5103 83.8036 33.5103C83.8892 33.5103 83.9686 33.4812 84.0447 33.4263C84.1177 33.3715 84.1748 33.3198 84.2065 33.2682C84.2414 33.2197 84.2859 33.139 84.343 33.0293L84.711 33.2552C84.4667 33.7427 84.1558 33.988 83.7782 33.988C83.5783 33.988 83.4038 33.9428 83.2547 33.8492L82.9818 33.6846C82.7978 33.5748 82.6518 33.5199 82.5376 33.5199C82.3377 33.5199 82.1536 33.6652 81.9887 33.9557H81.9855ZM83.1595 35.134C83.5751 35.134 83.8353 34.95 83.94 34.5852H84.5746C84.4159 35.2986 83.9432 35.6569 83.1626 35.6569C82.3821 35.6569 81.9189 35.2986 81.757 34.5852H82.3916C82.4836 34.95 82.7406 35.134 83.1626 35.134H83.1595ZM84.3335 38.2813H82.4583C82.2457 38.2813 82.0997 38.3491 82.0172 38.4847C81.9347 38.6202 81.8935 38.8236 81.8935 39.0915C81.8935 39.3595 81.9347 39.5628 82.0172 39.7016C82.0997 39.8404 82.2457 39.9115 82.4583 39.9115H84.0955C84.2541 39.9115 84.3366 39.834 84.3366 39.6758V38.2813H84.3335Z" fill="#00297B"/>
<path d="M85.9104 40.5022V36.6415C85.9104 36.1347 86.142 35.8829 86.6053 35.8829H88.233C89.2547 35.8829 89.7655 36.3832 89.7655 37.3807V40.5022H89.0453V37.513C89.0453 36.8222 88.7438 36.4768 88.1378 36.4768H86.894C86.802 36.4768 86.7354 36.4994 86.6941 36.5414C86.6529 36.5833 86.6307 36.6608 86.6307 36.7738V40.5054H85.9104V40.5022Z" fill="#00297B"/>
<path d="M92.5133 40.5022V39.9082H95.0929C95.4578 39.9082 95.6418 39.7145 95.6418 39.324C95.6418 39.2433 95.6323 39.1722 95.6164 39.1109C95.6006 39.0496 95.5593 38.9979 95.5022 38.9495C95.4419 38.9043 95.3943 38.8656 95.3562 38.8365C95.3182 38.8075 95.242 38.7752 95.1246 38.7365C95.0072 38.6977 94.9216 38.6719 94.8644 38.659C94.8073 38.6461 94.6963 38.617 94.5313 38.575L93.7 38.3652C93.2558 38.2555 92.9353 38.1005 92.7417 37.9004C92.5482 37.7003 92.4498 37.4097 92.4498 37.032C92.4498 36.2638 92.8591 35.8829 93.6746 35.8829H96.1336V36.4768H93.7507C93.5381 36.4768 93.389 36.5188 93.3002 36.6027C93.2113 36.6866 93.1669 36.8319 93.1669 37.0353C93.1669 37.2677 93.2335 37.4356 93.3668 37.5356C93.5001 37.6357 93.7158 37.7261 94.0141 37.8003L94.912 38.036C95.1912 38.107 95.4007 38.1651 95.5403 38.2135C95.6799 38.2619 95.8258 38.3362 95.9813 38.4298C96.1368 38.5266 96.2415 38.6461 96.3018 38.7913C96.3621 38.9366 96.3906 39.1174 96.3906 39.3304C96.3906 39.7145 96.3049 40.0051 96.1368 40.202C95.9686 40.3989 95.6799 40.499 95.2674 40.499H92.5101L92.5133 40.5022Z" fill="#00297B"/>
<path d="M97.2759 35.8829H99.6651C100.052 35.8829 100.347 35.9959 100.547 36.2218C100.747 36.4478 100.849 36.7577 100.849 37.145V39.8017C100.849 40.047 100.795 40.2246 100.687 40.3343C100.579 40.4441 100.395 40.499 100.138 40.499H98.1167C97.7043 40.499 97.406 40.386 97.2188 40.1536C97.0316 39.9244 96.9364 39.5693 96.9364 39.0851C96.9364 38.149 97.3298 37.6809 98.1199 37.6809H100.132V37.1321C100.132 36.6899 99.919 36.4704 99.4906 36.4704H97.2791V35.8764L97.2759 35.8829ZM100.128 38.2813H98.2532C98.0406 38.2813 97.8946 38.3491 97.8121 38.4847C97.7296 38.6202 97.6884 38.8236 97.6884 39.0915C97.6884 39.3595 97.7296 39.5628 97.8121 39.7016C97.8946 39.8404 98.0406 39.9115 98.2532 39.9115H99.8904C100.049 39.9115 100.132 39.834 100.132 39.6758V38.2813H100.128ZM98.2024 34.1139L99.4176 35.134L99.0305 35.6214L97.8153 34.611L98.2024 34.1139Z" fill="#00297B"/>
<path d="M101.705 40.5022V36.6415C101.705 36.1347 101.937 35.8829 102.4 35.8829H104.028C105.05 35.8829 105.56 36.3832 105.56 37.3807V40.5022H104.84V37.513C104.84 36.8222 104.539 36.4768 103.933 36.4768H102.689C102.597 36.4768 102.53 36.4994 102.489 36.5414C102.448 36.5833 102.426 36.6608 102.426 36.7738V40.5054H101.705V40.5022Z" fill="#00297B"/>
<path d="M109.631 40.5022H108.159C107.445 40.5022 106.953 40.315 106.68 39.9405C106.408 39.5661 106.274 38.9818 106.274 38.1941C106.274 37.4065 106.411 36.8416 106.687 36.4607C106.96 36.0765 107.451 35.8861 108.159 35.8861H109.212C109.612 35.8861 109.904 35.9377 110.085 36.0443C110.269 36.1476 110.358 36.3638 110.358 36.6899V40.0632C110.358 40.7249 110.215 41.2156 109.933 41.5319C109.65 41.8483 109.165 42.0065 108.479 42.0065H106.585V41.4125H108.479C108.8 41.4125 109.063 41.3382 109.266 41.1898C109.473 41.0413 109.593 40.8121 109.625 40.5054L109.631 40.5022ZM109.641 39.9082V36.7867C109.641 36.5769 109.533 36.4736 109.314 36.4736H108.295C107.788 36.4736 107.448 36.6092 107.28 36.8836C107.112 37.1579 107.026 37.5937 107.026 38.1909C107.026 38.7881 107.109 39.2465 107.274 39.5112C107.439 39.7759 107.778 39.9082 108.292 39.9082H109.638H109.641Z" fill="#00297B"/>
<path d="M116.809 40.5022H114.994C114.264 40.5022 113.759 40.3117 113.48 39.9276C113.201 39.5435 113.064 38.9624 113.064 38.1845C113.064 37.4065 113.204 36.848 113.483 36.4639C113.763 36.0765 114.267 35.8829 114.99 35.8829H116.713V36.4768H115.121C114.594 36.4768 114.245 36.6156 114.07 36.89C113.896 37.1644 113.81 37.597 113.81 38.1845C113.81 38.772 113.896 39.2271 114.067 39.5015C114.238 39.7759 114.591 39.9115 115.121 39.9115H116.809V40.5054V40.5022Z" fill="#00297B"/>
<path d="M117.373 40.5022V34.4012H118.094V35.8829H119.651C120.172 35.8829 120.565 36.0055 120.829 36.2541C121.095 36.5027 121.225 36.8997 121.225 37.4517V40.5022H120.505V37.5485C120.505 37.187 120.432 36.9191 120.283 36.7415C120.134 36.564 119.893 36.4768 119.556 36.4768H118.09V40.5022H117.37H117.373Z" fill="#00297B"/>
<path d="M122.285 35.8829H124.674C125.061 35.8829 125.356 35.9958 125.556 36.2218C125.756 36.4478 125.858 36.7577 125.858 37.145V39.8017C125.858 40.047 125.804 40.2246 125.696 40.3343C125.588 40.4441 125.404 40.499 125.147 40.499H123.126C122.713 40.499 122.415 40.386 122.228 40.1536C122.041 39.9244 121.945 39.5693 121.945 39.0851C121.945 38.149 122.339 37.6809 123.129 37.6809H125.141V37.1321C125.141 36.6899 124.928 36.4704 124.5 36.4704H122.288V35.8764L122.285 35.8829ZM123.963 35.134C124.379 35.134 124.639 34.95 124.744 34.5852H125.379C125.22 35.2986 124.747 35.6569 123.967 35.6569C123.186 35.6569 122.723 35.2986 122.561 34.5852H123.196C123.288 34.95 123.545 35.134 123.967 35.134H123.963ZM125.137 38.2813H123.262C123.05 38.2813 122.904 38.3491 122.821 38.4847C122.739 38.6202 122.697 38.8236 122.697 39.0915C122.697 39.3595 122.739 39.5628 122.821 39.7016C122.904 39.8404 123.05 39.9115 123.262 39.9115H124.899C125.058 39.9115 125.141 39.834 125.141 39.6758V38.2813H125.137Z" fill="#00297B"/>
<path d="M126.711 40.5022V36.6415C126.711 36.1347 126.943 35.8829 127.406 35.8829H131.467C132.489 35.8829 133 36.3832 133 37.3807V40.5022H132.28V37.513C132.28 36.8222 131.978 36.4768 131.372 36.4768H130.217V40.5022H129.497V36.4768H127.698C127.606 36.4768 127.539 36.4994 127.498 36.5414C127.457 36.5833 127.435 36.6608 127.435 36.7738V40.5054H126.714L126.711 40.5022Z" fill="#00297B"/>
<path d="M135.751 40.5022V39.9082H138.331C138.695 39.9082 138.879 39.7145 138.879 39.324C138.879 39.2433 138.87 39.1722 138.854 39.1109C138.838 39.0496 138.8 38.9979 138.74 38.9495C138.68 38.9043 138.632 38.8656 138.594 38.8365C138.556 38.8075 138.48 38.7752 138.362 38.7365C138.245 38.6977 138.159 38.6719 138.102 38.659C138.045 38.6461 137.934 38.617 137.769 38.575L136.938 38.3652C136.493 38.2555 136.173 38.1005 135.979 37.9004C135.786 37.7003 135.688 37.4097 135.688 37.032C135.688 36.2638 136.097 35.8829 136.912 35.8829H139.371V36.4768H136.988C136.776 36.4768 136.627 36.5188 136.538 36.6027C136.449 36.6866 136.405 36.8319 136.405 37.0353C136.405 37.2677 136.471 37.4356 136.604 37.5356C136.738 37.6357 136.953 37.7261 137.252 37.8003L138.15 38.036C138.429 38.107 138.638 38.1651 138.778 38.2135C138.918 38.2619 139.067 38.3362 139.219 38.4298C139.374 38.5266 139.479 38.6461 139.539 38.7913C139.6 38.9366 139.628 39.1174 139.628 39.3304C139.628 39.7145 139.543 40.0051 139.374 40.202C139.206 40.3989 138.918 40.499 138.505 40.499H135.748L135.751 40.5022Z" fill="#00297B"/>
<path d="M144.832 38.1748C144.832 39.0399 144.651 39.6532 144.289 40.0148C143.928 40.3763 143.331 40.5538 142.503 40.5538C141.675 40.5538 141.078 40.3731 140.717 40.0148C140.355 39.6532 140.174 39.0431 140.174 38.1748C140.174 37.3064 140.355 36.7092 140.717 36.3574C141.078 36.0055 141.675 35.8312 142.503 35.8312C143.331 35.8312 143.928 36.0055 144.289 36.3574C144.651 36.7092 144.832 37.3161 144.832 38.1748ZM140.926 38.1748C140.926 38.8301 141.043 39.2949 141.281 39.5596C141.519 39.8275 141.925 39.9599 142.503 39.9599C143.08 39.9599 143.486 39.8275 143.724 39.5596C143.962 39.2917 144.08 38.8301 144.08 38.1748C144.08 37.5195 143.962 37.0708 143.728 36.8093C143.493 36.5511 143.084 36.422 142.503 36.422C141.922 36.422 141.513 36.5511 141.278 36.8093C141.043 37.0676 140.926 37.5227 140.926 38.1748ZM143.084 34.1139L143.471 34.611L142.255 35.6214L141.868 35.134L143.084 34.1139Z" fill="#00297B"/>
<path d="M149.141 40.5022H147.326C146.596 40.5022 146.091 40.3117 145.812 39.9276C145.533 39.5435 145.397 38.9624 145.397 38.1845C145.397 37.4065 145.536 36.848 145.815 36.4639C146.095 36.0765 146.599 35.8829 147.323 35.8829H149.045V36.4768H147.453C146.926 36.4768 146.577 36.6156 146.402 36.89C146.228 37.1644 146.142 37.597 146.142 38.1845C146.142 38.772 146.228 39.2271 146.399 39.5015C146.571 39.7759 146.923 39.9115 147.453 39.9115H149.141V40.5054V40.5022Z" fill="#00297B"/>
</g>
<defs>
<clipPath id="clip0_78_357">
<rect width="151" height="42" fill="white"/>
</clipPath>
</defs>
</svg>
